{
  "metadata": {
    "name": "Demo Loop",
    "tempo": 120,
    "timeSignature": [4, 4],
    "lengthBeats": 16
  },
  "tracks": [
    {
      "id": "bass-track",
      "name": "Bass",
      "presetId": "bass",
      "notes": [
        { "id": "b1", "pitch": 36, "startTime": 0, "duration": 2, "velocity": 100 },
        { "id": "b2", "pitch": 36, "startTime": 4, "duration": 2, "velocity": 100 },
        { "id": "b3", "pitch": 38, "startTime": 8, "duration": 2, "velocity": 100 },
        { "id": "b4", "pitch": 41, "startTime": 12, "duration": 2, "velocity": 100 }
      ]
    },
    {
      "id": "lead-track",
      "name": "Melody",
      "presetId": "lead",
      "notes": [
        { "id": "m1", "pitch": 60, "startTime": 0, "duration": 1, "velocity": 80 },
        { "id": "m2", "pitch": 64, "startTime": 1, "duration": 1, "velocity": 90 },
        { "id": "m3", "pitch": 67, "startTime": 2, "duration": 2, "velocity": 100 },
        { "id": "m4", "pitch": 65, "startTime": 4, "duration": 1, "velocity": 80 },
        { "id": "m5", "pitch": 64, "startTime": 5, "duration": 1, "velocity": 90 },
        { "id": "m6", "pitch": 60, "startTime": 6, "duration": 2, "velocity": 100 },
        { "id": "m7", "pitch": 62, "startTime": 8, "duration": 1, "velocity": 80 },
        { "id": "m8", "pitch": 64, "startTime": 9, "duration": 1, "velocity": 90 },
        { "id": "m9", "pitch": 65, "startTime": 10, "duration": 2, "velocity": 100 },
        { "id": "m10", "pitch": 67, "startTime": 12, "duration": 2, "velocity": 100 },
        { "id": "m11", "pitch": 72, "startTime": 14, "duration": 2, "velocity": 110 }
      ]
    },
    {
      "id": "pad-track",
      "name": "Pad",
      "presetId": "pad",
      "notes": [
        { "id": "p1", "pitch": 48, "startTime": 0, "duration": 8, "velocity": 60 },
        { "id": "p2", "pitch": 52, "startTime": 0, "duration": 8, "velocity": 60 },
        { "id": "p3", "pitch": 55, "startTime": 0, "duration": 8, "velocity": 60 },
        { "id": "p4", "pitch": 50, "startTime": 8, "duration": 8, "velocity": 60 },
        { "id": "p5", "pitch": 53, "startTime": 8, "duration": 8, "velocity": 60 },
        { "id": "p6", "pitch": 57, "startTime": 8, "duration": 8, "velocity": 60 }
      ]
    }
  ],
  "mixer": {
    "tracks": {
      "bass-track": { "volume": 0.7, "mute": false, "solo": false, "pan": 0 },
      "lead-track": { "volume": 0.8, "mute": false, "solo": false, "pan": 0 },
      "pad-track": { "volume": 0.4, "mute": false, "solo": false, "pan": 0 }
    },
    "masterVolume": 0.8
  }
}
